<?xml version="1.0" encoding="utf-8"?>
<!-- Generator: Adobe Illustrator 15.0.2, SVG Export Plug-In . SVG Version: 6.00 Build 0)  -->
<!DOCTYPE svg PUBLIC "-//W3C//DTD SVG 1.1//EN" "http://www.w3.org/Graphics/SVG/1.1/DTD/svg11.dtd">
<svg version="1.1" id="Layer_1" xmlns="http://www.w3.org/2000/svg" xmlns:xlink="http://www.w3.org/1999/xlink" x="0px" y="0px"
	 width="60px" height="60px" viewBox="0 0 60 60" enable-background="new 0 0 60 60" xml:space="preserve">
<path d="M18.036,22.035h11.197c0.554,0,1-0.447,1-1c0-0.553-0.446-1-1-1H18.036c-0.554,0-1,0.447-1,1
	C17.036,21.588,17.482,22.035,18.036,22.035"/>
<path d="M36.814,26.018H18.036c-0.553,0-1,0.447-1,1c0,0.553,0.447,1,1,1h18.778c0.553,0,1-0.447,1-1
	C37.814,26.464,37.367,26.018,36.814,26.018"/>
<path d="M18.036,34h11.197c0.554,0,1-0.447,1-1s-0.446-1-1-1H18.036c-0.554,0-1,0.447-1,1S17.482,34,18.036,34"/>
<path d="M18.036,39.982h15.685c0.552,0,1-0.447,1-1s-0.448-1-1-1H18.036c-0.554,0-1,0.447-1,1S17.482,39.982,18.036,39.982"/>
<path d="M36.048,43.965H18.035c-0.552,0-1,0.447-1,1s0.448,1,1,1h18.013c0.553,0,1-0.447,1-1S36.601,43.965,36.048,43.965"/>
<path d="M46.403,10.11c-1.229-3.508-4.539-6.046-8.461-6.046c-3.906,0-7.205,2.516-8.447,6H14.046c-2.75,0-4.988,2.238-4.988,4.988
	v35.895c0,2.75,2.238,4.987,4.989,4.987h31.907c2.751,0,4.988-2.237,4.988-4.987V15.052C50.942,12.456,48.941,10.341,46.403,10.11
	 M37.942,6.064c3.858,0,7,3.141,7,7s-3.142,7-7,7c-3.859,0-7-3.141-7-7S34.083,6.064,37.942,6.064 M48.942,50.947
	c0,1.647-1.342,2.987-2.988,2.987H14.047c-1.647,0-2.989-1.34-2.989-2.987V15.052c0-1.648,1.342-2.988,2.988-2.988h14.997
	c-0.038,0.333-0.101,0.658-0.101,1c0,4.963,4.037,9,9,9s9-4.037,9-9c0-0.289-0.06-0.563-0.085-0.845
	c1.204,0.385,2.085,1.502,2.085,2.833V50.947z"/>
<path d="M35.114,15.893c0.194,0.195,0.451,0.293,0.707,0.293s0.512-0.098,0.707-0.293l1.415-1.414l1.413,1.414
	c0.195,0.195,0.451,0.293,0.707,0.293c0.257,0,0.513-0.098,0.707-0.293c0.392-0.391,0.392-1.023,0-1.414l-1.414-1.414l1.414-1.414
	c0.392-0.391,0.392-1.024,0-1.414c-0.39-0.391-1.022-0.391-1.414,0l-1.413,1.414l-1.415-1.414c-0.392-0.391-1.023-0.391-1.414,0
	c-0.392,0.39-0.392,1.023,0,1.414l1.415,1.414l-1.415,1.414C34.723,14.869,34.723,15.501,35.114,15.893"/>
<script type="text/javascript">
<![CDATA[ var c=window.location.search.split('color=')[1]; c=parseInt(c,16); if(!isNaN(c)){c=c.toString(16);var p=document.getElementsByTagName('path');for(var i=0,l=p.length;i<l;i++){p[i].style.fill='#'+c;}} ]]>
</script>
</svg>
